<?xml version="1.0" encoding="utf-8"?>
<!-- Generator: Adobe Illustrator 25.2.1, SVG Export Plug-In . SVG Version: 6.00 Build 0)  -->
<svg version="1.1" id="Camada_1" xmlns="http://www.w3.org/2000/svg" xmlns:xlink="http://www.w3.org/1999/xlink" x="0px" y="0px"
	 viewBox="0 0 841.89 595.28" style="enable-background:new 0 0 841.89 595.28;" xml:space="preserve">
<style type="text/css">
	.st0{fill:#FFFFFF;}
	.st1{font-family:'MS-Gothic';}
	.st2{font-size:5.25px;}
	.st3{fill:none;stroke:#FFFFFF;stroke-width:0.75;stroke-miterlimit:10;}
	.st4{fill:#FFFFFF;stroke:#FFFFFF;stroke-width:0.25;stroke-miterlimit:10;}
	.st5{fill:#010202;stroke:#FFFFFF;stroke-width:0.25;stroke-miterlimit:10;}
</style>
<g>
	<text transform="matrix(1 0 0 1 494.7729 170.2933)" class="st0 st1 st2">TM</text>
	<circle class="st3" cx="497.84" cy="168.56" r="5.48"/>
	<path class="st4" d="M456.6,339.62L456.6,339.62c-13.87,0-25.12-11.25-25.12-25.12V193.68c0-13.87,11.25-25.12,25.12-25.12h0
		c13.87,0,25.12,11.25,25.12,25.12V314.5C481.72,328.38,470.48,339.62,456.6,339.62z"/>
	<path class="st4" d="M394.35,447.65L394.35,447.65c-13.87,0-25.12-11.25-25.12-25.12V193.68c0-13.87,11.25-25.12,25.12-25.12h0
		c13.87,0,25.12,11.25,25.12,25.12v228.85C419.47,436.4,408.22,447.65,394.35,447.65z"/>
	<path class="st4" d="M332.1,447.65L332.1,447.65c-13.87,0-25.12-11.25-25.12-25.12V316.94c0-13.87,11.25-25.12,25.12-25.12h0
		c13.87,0,25.12,11.25,25.12,25.12v105.58C357.22,436.4,345.97,447.65,332.1,447.65z"/>
	<path class="st5" d="M326.52,320.16c0,1.42,1.15,2.58,2.58,2.58h4.86l3.72-3.85h7.44v3.85l-3.72,3.85h0v0l-3.72,3.85h-8.98
		c-1.21-0.06-2.17-1.06-2.17-2.29v-2.83c0-1.42-1.15-2.58-2.58-2.58h-2.57c-0.64,0-1.22-0.26-1.63-0.68
		c-0.41-0.41-0.66-0.98-0.66-1.61v-9.26l3.72-3.85v0l3.72-3.85h11.24l3.63,3.72l0,0l0.12,0.12l3.6,3.69l0,0v4h-7.44l0,0l-3.72-3.85
		h-3.72l0,0l-3.72,3.84l0,0V320.16z"/>
	<path class="st5" d="M396.3,310.26L396.3,310.26l-5.39,0c-1.33,0-2.4,1.08-2.4,2.4v1.63h0v0.54l0.06,3.56l3.84,3.97h3.9l3.89-4.03
		l0,0h7.8v4.03l-3.9,4.03h0v0l-3.9,4.03H388.5v0l-3.89-4.03v0h0v0l-3.9-4.03v0h0v-5.23l0-3.34l0-1.25c0.01-0.2,0.05-0.4,0.1-0.59
		c0.01-0.04,0.03-0.08,0.04-0.11c0.03-0.08,0.06-0.15,0.09-0.22c0.05-0.1,0.11-0.2,0.17-0.3v0c0.05-0.06,0.09-0.12,0.14-0.18v0
		c0.03-0.03,0.05-0.06,0.08-0.09c0.03-0.03,0.05-0.05,0.08-0.08c0.05-0.05,0.1-0.1,0.15-0.14c0,0,0.01-0.01,0.01-0.01c0,0,0,0,0,0
		c0.04-0.03,0.08-0.06,0.12-0.09c0.04-0.03,0.08-0.06,0.13-0.09c0.02-0.02,0.04-0.03,0.06-0.04c0.03-0.01,0.05-0.03,0.08-0.04
		c0.04-0.02,0.09-0.05,0.13-0.07c0.27-0.13,0.58-0.21,0.89-0.23h3.11c0.01,0,0.03,0,0.04,0c0.05,0,0.1,0,0.14-0.01
		c0.06,0,0.12-0.01,0.18-0.02c0.06-0.01,0.12-0.02,0.18-0.03c0.06-0.01,0.11-0.03,0.17-0.05c0.38-0.12,0.72-0.33,0.99-0.6
		c0.05-0.05,0.1-0.11,0.15-0.17l0,0c0.05-0.06,0.09-0.12,0.14-0.18c0,0,0,0,0,0c0.06-0.09,0.12-0.19,0.17-0.3
		c0.03-0.07,0.06-0.14,0.09-0.22c0.01-0.03,0.03-0.06,0.03-0.1v0c0.01-0.03,0.02-0.06,0.03-0.1c0-0.01,0-0.02,0.01-0.03
		c0-0.01,0-0.02,0.01-0.03c0,0,0,0,0,0v0c0-0.01,0.01-0.03,0.01-0.04c0,0,0-0.01,0-0.01c0-0.01,0.01-0.03,0.01-0.04
		c0-0.01,0-0.03,0.01-0.04c0,0,0-0.01,0-0.01c0,0,0-0.01,0-0.02c0.01-0.07,0.02-0.14,0.03-0.21c0,0,0,0,0,0v-0.01
		c0-0.01,0-0.01,0-0.02v-0.05c0-0.02,0-0.04,0-0.05c0-0.02,0-0.04,0-0.05v-3.26c0-0.03,0-0.07,0-0.1c0,0,0,0,0,0c0,0,0,0,0,0v-0.01
		c0.06-1.23,1.05-2.21,2.28-2.28h9.41l0,0l3.89,4.03v0h0l0,0l3.89,4.03v4.03h-7.8L396.3,310.26z"/>
	<g>
		<path class="st5" d="M467,310.36h-15.96l1.56,1.56h12.35l5.01,4.08v4.09h-18.53l-3.48-3.48l-4.69-4.69v-6.78
			c0-1.63,1.32-2.95,2.95-2.95h23.74v5.21C469.95,309.04,468.63,310.36,467,310.36z"/>
		<polygon class="st5" points="469.95,321.65 469.95,329.82 447.81,329.82 443.25,325.74 443.25,318.95 447.81,318.95 
			447.81,318.98 447.8,318.98 450.47,321.65 		"/>
	</g>
</g>
</svg>
