<?xml version="1.0" encoding="utf-8"?>
<!-- Generator: Adobe Illustrator 25.2.1, SVG Export Plug-In . SVG Version: 6.00 Build 0)  -->
<svg version="1.1" id="Camada_1" xmlns="http://www.w3.org/2000/svg" xmlns:xlink="http://www.w3.org/1999/xlink" x="0px" y="0px"
	 viewBox="0 0 841.89 595.28" style="enable-background:new 0 0 841.89 595.28;" xml:space="preserve">
<style type="text/css">
	.st0{font-family:'MS-Gothic';}
	.st1{font-size:5.25px;}
	.st2{fill:none;stroke:#000000;stroke-width:0.75;stroke-miterlimit:10;}
	.st3{fill:#0B0E1E;stroke:#FFFFFF;stroke-width:0.25;stroke-miterlimit:10;}
	.st4{fill:#FFFFFF;stroke:#FFFFFF;stroke-width:0.25;stroke-miterlimit:10;}
</style>
<g>
	<text transform="matrix(1 0 0 1 510.0388 162.2009)" class="st0 st1">TM</text>
	<circle class="st2" cx="513.1" cy="160.46" r="5.48"/>
	<path class="st3" d="M471.87,331.53L471.87,331.53c-13.87,0-25.12-11.25-25.12-25.12V185.59c0-13.87,11.25-25.12,25.12-25.12h0
		c13.87,0,25.12,11.25,25.12,25.12v120.82C496.99,320.28,485.74,331.53,471.87,331.53z"/>
	<path class="st3" d="M409.61,439.55L409.61,439.55c-13.87,0-25.12-11.25-25.12-25.12V185.59c0-13.87,11.25-25.12,25.12-25.12h0
		c13.87,0,25.12,11.25,25.12,25.12v228.85C434.74,428.31,423.49,439.55,409.61,439.55z"/>
	<path class="st3" d="M347.36,439.55L347.36,439.55c-13.87,0-25.12-11.25-25.12-25.12V308.85c0-13.87,11.25-25.12,25.12-25.12h0
		c13.87,0,25.12,11.25,25.12,25.12v105.58C372.48,428.31,361.24,439.55,347.36,439.55z"/>
	<path class="st4" d="M341.78,312.06c0,1.42,1.15,2.58,2.58,2.58h4.86l3.72-3.85h7.44v3.85l-3.72,3.85h0v0l-3.72,3.85h-8.98
		c-1.21-0.06-2.17-1.06-2.17-2.29v-2.83c0-1.42-1.15-2.58-2.58-2.58h-2.57c-0.64,0-1.22-0.26-1.63-0.68
		c-0.41-0.41-0.66-0.98-0.66-1.61v-9.26l3.72-3.85v0l3.72-3.85h11.24l3.63,3.72l0,0l0.12,0.12l3.6,3.69l0,0v4h-7.44l0,0l-3.72-3.85
		h-3.72l0,0l-3.72,3.84l0,0V312.06z"/>
	<path class="st4" d="M411.57,302.17L411.57,302.17l-5.39,0c-1.33,0-2.4,1.08-2.4,2.4v1.63h0v0.54l0.06,3.56l3.84,3.97h3.9
		l3.89-4.03l0,0h7.8v4.03l-3.9,4.03h0v0l-3.9,4.03h-11.69v0l-3.89-4.03v0h0v0l-3.9-4.03v0h0v-5.23l0-3.34l0-1.25
		c0.01-0.2,0.05-0.4,0.1-0.59c0.01-0.04,0.03-0.08,0.04-0.11c0.03-0.08,0.06-0.15,0.09-0.22c0.05-0.1,0.11-0.2,0.17-0.3v0
		c0.05-0.06,0.09-0.12,0.14-0.18v0c0.03-0.03,0.05-0.06,0.08-0.09c0.03-0.03,0.05-0.05,0.08-0.08c0.05-0.05,0.1-0.1,0.15-0.14
		c0,0,0.01-0.01,0.01-0.01c0,0,0,0,0,0c0.04-0.03,0.08-0.06,0.12-0.09c0.04-0.03,0.08-0.06,0.13-0.09c0.02-0.02,0.04-0.03,0.06-0.04
		c0.03-0.01,0.05-0.03,0.08-0.04c0.04-0.02,0.09-0.05,0.13-0.07c0.27-0.13,0.58-0.21,0.89-0.23h3.11c0.01,0,0.03,0,0.04,0
		c0.05,0,0.1,0,0.14-0.01c0.06,0,0.12-0.01,0.18-0.02c0.06-0.01,0.12-0.02,0.18-0.03c0.06-0.01,0.11-0.03,0.17-0.05
		c0.38-0.12,0.72-0.33,0.99-0.6c0.05-0.05,0.1-0.11,0.15-0.17l0,0c0.05-0.06,0.09-0.12,0.14-0.18c0,0,0,0,0,0
		c0.06-0.09,0.12-0.19,0.17-0.3c0.03-0.07,0.06-0.14,0.09-0.22c0.01-0.03,0.03-0.06,0.03-0.1v0c0.01-0.03,0.02-0.06,0.03-0.1
		c0-0.01,0-0.02,0.01-0.03c0-0.01,0-0.02,0.01-0.03c0,0,0,0,0,0v0c0-0.01,0.01-0.03,0.01-0.04c0,0,0-0.01,0-0.01
		c0-0.01,0.01-0.03,0.01-0.04c0-0.01,0-0.03,0.01-0.04c0,0,0-0.01,0-0.01c0,0,0-0.01,0-0.02c0.01-0.07,0.02-0.14,0.03-0.21
		c0,0,0,0,0,0v-0.01c0-0.01,0-0.01,0-0.02v-0.05c0-0.02,0-0.04,0-0.05c0-0.02,0-0.04,0-0.05v-3.26c0-0.03,0-0.07,0-0.1c0,0,0,0,0,0
		s0,0,0,0v-0.01c0.06-1.23,1.05-2.21,2.28-2.28h9.41l0,0l3.89,4.03v0h0l0,0l3.89,4.03v4.03h-7.8L411.57,302.17z"/>
	<g>
		<path class="st4" d="M482.26,302.27H466.3l1.56,1.56h12.35l5.01,4.08V312h-18.53l-3.48-3.48l-4.69-4.69v-6.78
			c0-1.63,1.32-2.95,2.95-2.95h23.74v5.21C485.22,300.95,483.89,302.27,482.26,302.27z"/>
		<polygon class="st4" points="485.22,313.56 485.22,321.73 463.08,321.73 458.52,317.64 458.52,310.86 463.08,310.86 
			463.08,310.88 463.07,310.89 465.74,313.56 		"/>
	</g>
</g>
</svg>
