<?xml version="1.0" encoding="utf-8"?>
<!-- Generator: Adobe Illustrator 25.2.1, SVG Export Plug-In . SVG Version: 6.00 Build 0)  -->
<svg version="1.1" id="Camada_1" xmlns="http://www.w3.org/2000/svg" xmlns:xlink="http://www.w3.org/1999/xlink" x="0px" y="0px"
	 viewBox="0 0 841.89 595.28" style="enable-background:new 0 0 841.89 595.28;" xml:space="preserve">
<style type="text/css">
	.st0{stroke:#FFFFFF;stroke-miterlimit:10;}
</style>
<path class="st0" d="M395.02,311.85c0,6.55,5.31,11.85,11.85,11.85h22.36l17.11-17.7h34.21v17.7l-17.1,17.7h-0.01v0.01l-17.1,17.69
	h-41.32c-5.57-0.29-10-4.89-10-10.53v-13.02c0-6.54-5.31-11.85-11.85-11.85h-11.82c-2.93,0-5.59-1.2-7.5-3.14
	c-1.88-1.9-3.04-4.51-3.04-7.4v-42.57l17.11-17.7v-0.01l17.1-17.69h51.71l16.7,17.12l0.01,0.01l0.55,0.57l16.55,16.97l0.01,0.01
	v18.42h-34.21l-0.01-0.01l-17.1-17.69h-17.1l-0.01,0.01l-17.09,17.68l-0.01,0.01V311.85z"/>
</svg>
