<?xml version="1.0" encoding="utf-8"?>
<!-- Generator: Adobe Illustrator 25.2.1, SVG Export Plug-In . SVG Version: 6.00 Build 0)  -->
<svg version="1.1" id="Camada_1" xmlns="http://www.w3.org/2000/svg" xmlns:xlink="http://www.w3.org/1999/xlink" x="0px" y="0px"
	 viewBox="0 0 841.89 595.28" style="enable-background:new 0 0 841.89 595.28;" xml:space="preserve">
<style type="text/css">
	.st0{stroke:#FFFFFF;stroke-miterlimit:10;}
</style>
<path class="st0" d="M429.24,270.6v-0.01h-23.67c-5.82,0-10.54,4.72-10.54,10.53v7.17h-0.01v2.36l0.27,15.61l16.84,17.44h17.11
	l17.09-17.69l0.01-0.01h34.21v17.7l-17.1,17.7h-0.01v0.01l-17.1,17.69h-51.32v-0.01l-17.09-17.68v-0.01h-0.01v-0.01l-17.1-17.68
	v-0.01h-0.01v-22.97l0.01-14.66l0.01-5.5c0.04-0.89,0.2-1.76,0.45-2.57c0.06-0.17,0.11-0.33,0.17-0.49c0.12-0.33,0.25-0.65,0.4-0.96
	c0.23-0.45,0.48-0.89,0.76-1.31v-0.01c0.2-0.28,0.4-0.54,0.61-0.8v-0.01c0.11-0.13,0.22-0.25,0.33-0.38
	c0.11-0.12,0.23-0.24,0.35-0.36c0.21-0.22,0.44-0.42,0.67-0.61c0.02-0.02,0.04-0.03,0.06-0.05c0,0,0.01-0.02,0.02-0.02
	c0.16-0.14,0.33-0.28,0.51-0.39c0.18-0.13,0.36-0.26,0.55-0.38c0.09-0.07,0.18-0.13,0.27-0.17c0.11-0.06,0.23-0.13,0.34-0.19
	c0.19-0.1,0.38-0.2,0.57-0.29c1.2-0.58,2.53-0.92,3.92-0.99h13.67c0.06,0,0.12,0,0.18-0.01c0.21,0,0.43-0.01,0.63-0.03
	c0.27-0.01,0.53-0.04,0.79-0.09c0.26-0.03,0.52-0.08,0.78-0.14c0.25-0.06,0.5-0.13,0.75-0.2c1.66-0.52,3.14-1.43,4.33-2.63
	c0.24-0.23,0.46-0.48,0.67-0.74l0.01-0.01c0.21-0.25,0.41-0.52,0.6-0.8c0,0,0-0.01,0.01-0.01c0.28-0.41,0.53-0.85,0.75-1.31
	c0.15-0.31,0.28-0.63,0.41-0.96c0.05-0.14,0.11-0.28,0.15-0.42v-0.01c0.05-0.14,0.09-0.28,0.13-0.43c0.01-0.04,0.02-0.09,0.03-0.14
	c0.01-0.04,0.02-0.07,0.03-0.11c0-0.01,0-0.01,0-0.02v-0.01c0.02-0.05,0.03-0.11,0.04-0.16c0.01-0.02,0.01-0.04,0.01-0.06
	c0.02-0.05,0.03-0.11,0.04-0.17c0.01-0.05,0.02-0.11,0.03-0.17c0-0.02,0.01-0.03,0.01-0.05c0.01-0.02,0.01-0.05,0.01-0.08
	c0.06-0.3,0.1-0.61,0.12-0.92c0,0,0,0,0.01-0.01v-0.05c0-0.03,0-0.06,0.01-0.1v-0.23c0.01-0.08,0.01-0.16,0.01-0.24
	c0.01-0.08,0.01-0.16,0.01-0.24v-14.32c0-0.15,0-0.31,0.01-0.46c0-0.01,0-0.01,0-0.02s0-0.01,0-0.02v-0.03
	c0.27-5.39,4.59-9.72,9.99-10h41.31l0.01,0.01l17.09,17.68v0.01h0.01l0.01,0.01l17.09,17.69v17.7h-34.21L429.24,270.6z"/>
</svg>
